<svg fill="none" viewBox="0 0 178 178">
    <circle cx="89" cy="89" r="85" fill="#fff" filter="url(#filter0_d)"/>
    <path fill="#2C3E50" d="M83.9756 107H58.6367v-3.771l10.1514-10.2036c3.0937-3.1289 5.1328-5.3613 6.1172-6.6973.9843-1.3359 1.7226-2.6367 2.2148-3.9023.4922-1.2656.7383-2.6279.7383-4.0869 0-2.0567-.624-3.6827-1.8721-4.878-1.248-1.2129-2.9795-1.8193-5.1943-1.8193-1.5996 0-3.1201.2637-4.5615.791-1.4239.5274-3.0147 1.4854-4.7725 2.874l-2.3203-2.9795c3.5508-2.9531 7.418-4.4296 11.6016-4.4296 3.6211 0 6.4599.9316 8.5166 2.7949 2.0566 1.8457 3.0849 4.333 3.0849 7.4619 0 2.4434-.6855 4.8603-2.0566 7.251-1.3711 2.3906-3.9375 5.414-7.6992 9.0703l-8.4375 8.2534v.21h19.8281V107zm10.4414 0l15.979-34.5146H89.3809v-4.0342h25.6551v3.5068L99.2686 107H94.417z"/>
    <path fill="#6B8093" d="M132.957 73.6387c0 1.7448-.439 3.1087-1.318 4.0918-.879.9765-2.093 1.4648-3.643 1.4648-.957 0-1.807-.2246-2.549-.6738-.742-.4492-1.315-1.0938-1.718-1.9336-.404-.8399-.606-1.8229-.606-2.9492 0-1.7448.436-3.1022 1.309-4.0723.872-.9766 2.083-1.4648 3.632-1.4648 1.498 0 2.686.498 3.565 1.4941.885.9961 1.328 2.3438 1.328 4.043zm-8.154 0c0 1.3672.273 2.4088.82 3.125.547.7161 1.351 1.0742 2.412 1.0742s1.865-.3548 2.412-1.0645c.554-.7161.83-1.761.83-3.1347 0-1.3607-.276-2.3926-.83-3.0957-.547-.7097-1.357-1.0645-2.431-1.0645-1.062 0-1.862.3483-2.403 1.0449-.54.6967-.81 1.7351-.81 3.1153zM130.691 91.4023c-1.882 0-3.371.6289-4.464 1.8868-1.086 1.25-1.629 2.9648-1.629 5.1445 0 2.2424.523 3.9764 1.57 5.2034 1.055 1.218 2.555 1.828 4.5 1.828 1.195 0 2.559-.215 4.09-.645v1.746c-1.188.446-2.653.668-4.395.668-2.523 0-4.472-.765-5.847-2.296-1.368-1.532-2.051-3.708-2.051-6.5278 0-1.7657.328-3.3125.984-4.6407.664-1.3281 1.617-2.3515 2.86-3.0703 1.25-.7187 2.718-1.0781 4.406-1.0781 1.797 0 3.367.3281 4.711.9844l-.844 1.7109c-1.297-.6094-2.594-.9141-3.891-.9141z"/>
    <path fill="#33B3BF" d="M92.3228 147.917v-13.331c0-1.972-1.6136-3.586-3.5857-3.586-1.9721 0-3.5857 1.614-3.5857 3.586v13.331C83.8247 148.992 83 150.642 83 152.363c0 3.155 2.5817 5.737 5.7371 5.737 3.1554 0 5.7013-2.582 5.7013-5.737 0-1.721-.7889-3.371-2.1156-4.446zm-3.5857 8.964c-2.4741 0-4.4821-2.008-4.4821-4.482 0-1.578.8247-3.012 2.1514-3.837v-13.94c0-1.291 1.0399-2.367 2.3666-2.367 1.2908 0 2.3665 1.04 2.3665 2.367v13.94c1.2909.825 2.1515 2.259 2.1515 3.837-.0718 2.474-2.0798 4.482-4.5539 4.482z"/>
    <path fill="#33B3BF" d="M89.8472 149.315v-8.211c0-.61-.502-1.112-1.1116-1.112-.6095 0-1.1115.502-1.1115 1.112v8.211c-1.255.466-2.1514 1.649-2.1514 3.048 0 1.793 1.4701 3.263 3.2629 3.263 1.7929 0 3.263-1.47 3.263-3.263 0-1.399-.8964-2.582-2.1514-3.048z"/>
    <path fill="url(#paint0_linear)" fill-rule="evenodd" d="M34.0126 147.107C18.6091 132.525 9 111.885 9 89 9 44.8172 44.8172 9 89 9c44.183 0 80 35.8172 80 80 0 22.564-9.342 42.947-24.369 57.49l-2.582-4.473C155.612 128.446 164 109.703 164 89c0-41.4214-33.579-75-75-75-41.4214 0-75 33.5786-75 75 0 21.025 8.6511 40.029 22.5878 53.647l-2.5752 4.46z" clip-rule="evenodd"/>
    <path fill="#E5E5E5" fill-rule="evenodd" d="M39.9331 140.317C26.4177 127.391 18 109.178 18 89c0-39.2122 31.7878-71 71-71 39.212 0 71 31.7878 71 71 0 19.96-8.237 37.997-21.497 50.896l-3.445-5.967C146.167 122.418 153 106.753 153 89.4922c0-35.3462-28.654-64-64-64-35.3462 0-64 28.6538-64 64 0 17.4808 7.0083 33.3248 18.3684 44.8748l-3.4353 5.95z" clip-rule="evenodd" filter="url(#filter1_i)"/>
    <path fill="#2B3E4D" d="M125.051 31.0822l1.709 1.0389-9.791 15.8178-1.709-1.0388 9.791-15.8179z"/>
    <circle cx="131" cy="24" r="10" fill="#fff" filter="url(#filter2_d)"/>
    <circle cx="130.999" cy="23.9987" r="6.66667" fill="#B766A8"/>
    <defs>
        <filter id="filter0_d" width="178" height="178" x="0" y="0" color-interpolation-filters="sRGB" filterUnits="userSpaceOnUse">
            <feFlood flood-opacity="0" result="BackgroundImageFix"/>
            <feColorMatrix in="SourceAlpha" values="0 0 0 0 0 0 0 0 0 0 0 0 0 0 0 0 0 0 127 0"/>
            <feOffset/>
            <feGaussianBlur stdDeviation="2"/>
            <feColorMatrix values="0 0 0 0 0 0 0 0 0 0 0 0 0 0 0 0 0 0 0.25 0"/>
            <feBlend in2="BackgroundImageFix" result="effect1_dropShadow"/>
            <feBlend in="SourceGraphic" in2="effect1_dropShadow" result="shape"/>
        </filter>
        <filter id="filter1_i" width="142" height="122.317" x="18" y="18" color-interpolation-filters="sRGB" filterUnits="userSpaceOnUse">
            <feFlood flood-opacity="0" result="BackgroundImageFix"/>
            <feBlend in="SourceGraphic" in2="BackgroundImageFix" result="shape"/>
            <feColorMatrix in="SourceAlpha" result="hardAlpha" values="0 0 0 0 0 0 0 0 0 0 0 0 0 0 0 0 0 0 127 0"/>
            <feOffset/>
            <feGaussianBlur stdDeviation="2"/>
            <feComposite in2="hardAlpha" k2="-1" k3="1" operator="arithmetic"/>
            <feColorMatrix values="0 0 0 0 0 0 0 0 0 0 0 0 0 0 0 0 0 0 0.1 0"/>
            <feBlend in2="shape" result="effect1_innerShadow"/>
        </filter>
        <filter id="filter2_d" width="24" height="24" x="119" y="12" color-interpolation-filters="sRGB" filterUnits="userSpaceOnUse">
            <feFlood flood-opacity="0" result="BackgroundImageFix"/>
            <feColorMatrix in="SourceAlpha" values="0 0 0 0 0 0 0 0 0 0 0 0 0 0 0 0 0 0 127 0"/>
            <feOffset/>
            <feGaussianBlur stdDeviation="1"/>
            <feColorMatrix values="0 0 0 0 0 0 0 0 0 0 0 0 0 0 0 0 0 0 0.15 0"/>
            <feBlend in2="BackgroundImageFix" result="effect1_dropShadow"/>
            <feBlend in="SourceGraphic" in2="effect1_dropShadow" result="shape"/>
        </filter>
        <linearGradient id="paint0_linear" x1="-5.04479" x2="231.041" y1="89" y2="89" gradientUnits="userSpaceOnUse">
            <stop stop-color="#7465F3"/>
            <stop offset="1" stop-color="#EF6974"/>
        </linearGradient>
    </defs>
</svg>